<svg width="512" height="512" viewBox="0 0 512 512" fill="none" xmlns="http://www.w3.org/2000/svg">
<mask id="path-1-inside-1_453_276" fill="white">
<path d="M376 232V416C376 421.253 374.965 426.455 372.955 431.308C370.945 436.161 367.999 440.57 364.284 444.285C360.57 447.999 356.16 450.945 351.307 452.955C346.454 454.966 341.253 456 336 456H96C85.3913 456 75.2172 451.786 67.7157 444.285C60.2143 436.783 56 426.609 56 416V176C56 165.392 60.2143 155.217 67.7157 147.716C75.2172 140.215 85.3913 136 96 136H263.48"/>
</mask>
<path d="M405 232C405 215.984 392.016 203 376 203C359.984 203 347 215.984 347 232H405ZM376 416L347 416L376 416ZM96 456L96 427L96 456ZM56 416L27 416L56 416ZM56 176H27H56ZM96 136L96 107L96 136ZM263.48 165C279.496 165 292.48 152.017 292.48 136C292.48 119.984 279.496 107 263.48 107V165ZM347 232V416H405V232H347ZM347 416C347 417.445 346.715 418.875 346.163 420.21L399.748 442.405C403.215 434.034 405 425.061 405 416L347 416ZM346.163 420.21C345.61 421.544 344.8 422.757 343.778 423.778L384.79 464.791C391.198 458.383 396.28 450.777 399.748 442.405L346.163 420.21ZM343.778 423.778C342.757 424.8 341.544 425.61 340.21 426.163L362.405 479.748C370.777 476.28 378.383 471.198 384.79 464.791L343.778 423.778ZM340.21 426.163C338.875 426.716 337.445 427 336 427V485C345.061 485 354.034 483.215 362.405 479.748L340.21 426.163ZM336 427H96V485H336V427ZM96 427C93.0826 427 90.2847 425.841 88.2218 423.778L47.2096 464.791C60.1496 477.731 77.7001 485 96 485L96 427ZM88.2218 423.778C86.1589 421.716 85 418.918 85 416L27 416C27 434.3 34.2696 451.851 47.2096 464.791L88.2218 423.778ZM85 416V176H27V416H85ZM85 176C85 173.083 86.1589 170.285 88.2218 168.222L47.2096 127.21C34.2696 140.15 27 157.7 27 176L85 176ZM88.2218 168.222C90.2847 166.159 93.0826 165 96 165L96 107C77.7001 107 60.1496 114.27 47.2096 127.21L88.2218 168.222ZM96 165H263.48V107H96V165Z" fill="black" mask="url(#path-1-inside-1_453_276)"/>
<path d="M451.94 61.2503C450.479 59.6447 448.707 58.3521 446.732 57.4504C444.758 56.5488 442.62 56.057 440.45 56.0047C438.28 55.9523 436.121 56.3406 434.105 57.1459C432.089 57.9513 430.257 59.157 428.72 60.6903L416.35 73.0003C414.851 74.5004 414.009 76.5345 414.009 78.6553C414.009 80.7761 414.851 82.8102 416.35 84.3103L427.69 95.6303C428.434 96.3771 429.317 96.9697 430.29 97.3741C431.263 97.7785 432.307 97.9866 433.36 97.9866C434.414 97.9866 435.457 97.7785 436.43 97.3741C437.403 96.9697 438.287 96.3771 439.03 95.6303L451.09 83.6303C457.19 77.5403 457.76 67.6203 451.94 61.2503ZM391.34 98.0003L210.82 278.2C209.726 279.29 208.93 280.644 208.51 282.13L200.16 307C199.96 307.675 199.946 308.391 200.119 309.074C200.292 309.756 200.647 310.379 201.144 310.876C201.642 311.374 202.265 311.728 202.947 311.901C203.629 312.075 204.345 312.06 205.02 311.86L229.87 303.51C231.357 303.09 232.71 302.295 233.8 301.2L414 120.66C415.667 118.975 416.603 116.701 416.603 114.33C416.603 111.96 415.667 109.685 414 108L404.05 98.0003C402.363 96.3179 400.078 95.3732 397.695 95.3732C395.313 95.3732 393.027 96.3179 391.34 98.0003Z" fill="black"/>
</svg>
